<?xml version="1.0" encoding="UTF-8"?><svg id="Layer_2" xmlns="http://www.w3.org/2000/svg" xmlns:xlink="http://www.w3.org/1999/xlink" viewBox="0 0 477.33 477.33"><defs><linearGradient id="linear-gradient" x1="294.98" y1="195.85" x2="292.86" y2="-5.55" gradientTransform="translate(-56 333.33) scale(1 -1)" gradientUnits="userSpaceOnUse"><stop offset=".26" stop-color="#ef3e30"/><stop offset=".38" stop-color="#ef452f"/><stop offset=".99" stop-color="#f37033"/></linearGradient><linearGradient id="linear-gradient-2" x1="171.35" y1="194.79" x2="171.35" y2="1.64" xlink:href="#linear-gradient"/><linearGradient id="linear-gradient-3" x1="417.73" y1="194.79" x2="417.73" y2="1.64" xlink:href="#linear-gradient"/></defs><path d="M238.67,477.33c131.81,0,238.67-106.86,238.67-238.67S370.48,0,238.67,0,0,106.85,0,238.67s106.85,238.67,238.67,238.67Z" fill="#141522"/><path d="M238.41,139.14c-57.62,0-99.18,25.21-124.11,52.7,75.91,8.3,115.12,69.43,124.11,146.36,8.99-76.95,48.19-138.07,124.11-146.36-24.91-27.48-66.47-52.7-124.11-52.7Z" fill="url(#linear-gradient)"/><path d="M61.21,229.81c41.64,18.12,86.91,27.57,131.06,38.95-20.46-1.23-163.08-13.38-153.37-42.68,1.38-4.19,4.83-6.72,7.77-8.4,19.35-11.62,42.68-19.75,67.45-25.67-8.4,9.29-14.96,18.97-19.53,27.86h.22c-11.58,2.3-22.82,5.36-33.6,9.93Z" fill="url(#linear-gradient-2)"/><path d="M426.16,242.68c-17.34,7.93-36.05,11.58-54.26,15.21-28.99,5.39-58.12,8.93-87.37,10.87,28.46-6.95,56.78-14,84.57-22.33,15.7-5.14,32-9.35,46.54-16.55-10.78-4.54-22.15-7.7-33.75-10h.25c-4.5-8.82-10.95-18.35-19.31-27.57,2.87.67,5.74,1.38,8.55,2.09,21.69,6.03,45.09,12.72,63.44,26.83,9.84,7.82-.15,17.9-8.71,21.47l.04-.02Z" fill="url(#linear-gradient-3)"/><path d="M238.58,158.03c-4.12,22.6-16.83,35.2-38.14,38.47,21.29,3.27,34.02,15.85,38.14,38.46,4.12-22.6,16.83-35.2,38.14-38.46-21.29-3.27-34.02-15.85-38.14-38.47Z" fill="#191919"/></svg>